<?xml version="1.0" encoding="utf-8"?>
<svg version="1.1" id="Camada_1" xmlns="http://www.w3.org/2000/svg" xmlns:xlink="http://www.w3.org/1999/xlink" x="0px" y="0px"
	 viewBox="0 0 147.7 26.3" style="enable-background:new 0 0 147.7 26.3;" xml:space="preserve">
<style type="text/css">
	.st0{fill:#3cb054;}
	.st1{enable-background:new; fill: rgba(60, 176, 84, 0.41)}
</style>
<path class="st0" d="M12.1,26.3c-0.3,0-0.6,0-0.8,0C5,26.3,0,21.3,0,15c0,0,0-0.1,0-0.1v-0.2l0,0V2.8l0,0c3.8-0.1,13.1,0.8,18.2,7.9
	c2.2,3.1,2.7,7.1,1.3,10.7l0,0c-0.7,1.7-2,3.1-3.6,3.9c2.3-9-2.2-16.4-11.7-19C11,9.1,16.6,18.8,12.1,26.3z"/>
<path class="st0" d="M39.4,13.7c0,2.6-1.9,4.5-4.3,4.5c-1.2,0-2.1-0.5-2.7-1.3v4.6h-1.9V9.4h1.9v1c0.6-0.8,1.5-1.3,2.7-1.3
	C37.5,9.2,39.4,11,39.4,13.7z M32.3,13.7c0,1.6,1.1,2.8,2.6,2.8c1.6,0,2.6-1.3,2.6-2.8s-1-2.8-2.6-2.8
	C33.3,10.9,32.3,12.1,32.3,13.7z"/>
<path class="st0" d="M49.5,13.7c0,0.2,0,0.5,0,0.7h-6.4c0.2,1.5,1.4,2.2,2.6,2.2c0.9,0,1.8-0.3,2.5-0.9l0.9,1.3
	c-1.1,0.9-2.2,1.2-3.5,1.2c-2.6,0-4.4-1.8-4.4-4.5c0-2.7,1.8-4.5,4.3-4.5C47.8,9.2,49.5,11,49.5,13.7z M43.1,12.9h4.5
	c-0.2-1.3-1-2.1-2.2-2.1C44,10.8,43.3,11.7,43.1,12.9z"/>
<path class="st0" d="M59.6,13.7c0,0.2,0,0.5,0,0.7h-6.4c0.2,1.5,1.4,2.2,2.6,2.2c0.9,0,1.8-0.3,2.5-0.9l0.9,1.3
	c-1.1,0.9-2.2,1.2-3.5,1.2c-2.6,0-4.4-1.8-4.4-4.5c0-2.7,1.8-4.5,4.3-4.5C57.9,9.2,59.6,11,59.6,13.7z M53.2,12.9h4.5
	c-0.2-1.3-1-2.1-2.2-2.1C54.1,10.8,53.4,11.7,53.2,12.9z"/>
<path class="st0" d="M67.7,9.4l-0.5,1.9c-0.4-0.2-1-0.3-1.4-0.3c-1.2,0-2.1,0.8-2.1,2.3V18h-1.9V9.4h1.9v1c0.6-0.8,1.4-1.2,2.5-1.2
	C66.8,9.2,67.3,9.2,67.7,9.4z"/>
<path class="st0" d="M76.4,10.5l-1.2,1.3c-0.6-0.6-1.2-0.9-2.1-0.9c-1.4,0-2.5,1.1-2.5,2.8c0,1.6,1.1,2.8,2.5,2.8
	c0.8,0,1.6-0.4,2.1-0.9l1.2,1.3c-0.8,0.9-1.9,1.4-3.2,1.4c-2.7,0-4.5-2-4.5-4.5s1.8-4.5,4.5-4.5C74.5,9.2,75.6,9.6,76.4,10.5z"/>
<path class="st0" d="M87,13.7c0,2.6-2,4.5-4.6,4.5c-2.7,0-4.6-2-4.6-4.5s2-4.5,4.6-4.5C85,9.2,87,11.1,87,13.7z M79.6,13.7
	c0,1.6,1.2,2.8,2.7,2.8c1.5,0,2.7-1.1,2.7-2.8c0-1.6-1.2-2.8-2.7-2.8C80.8,10.9,79.6,12.1,79.6,13.7z"/>
<path class="st0" d="M91.6,6.4c0,0.8-0.6,1.3-1.3,1.3c-0.8,0-1.3-0.6-1.3-1.3c0-0.7,0.6-1.3,1.3-1.3C91,5.1,91.6,5.6,91.6,6.4z
	 M89.3,18V9.4h1.9V18H89.3z"/>
<path class="st0" d="M102.2,12.6V18h-1.9v-4.8c0-1.4-0.7-2.3-2-2.3c-1.2,0-2.2,0.8-2.2,2.3V18h-1.9V9.4H96v1.1
	c0.7-1,1.8-1.3,2.6-1.3C100.7,9.2,102.2,10.6,102.2,12.6z"/>
<g class="st1">
	<path class="st1" d="M114.6,10.7V5.3h1.9v13h-1.9v-1c-0.6,0.8-1.5,1.3-2.7,1.3c-2.4,0-4.3-1.9-4.3-4.5s1.9-4.5,4.3-4.5
		C113.1,9.4,114,9.9,114.6,10.7z M109.5,14c0,1.5,1,2.8,2.6,2.8c1.5,0,2.6-1.2,2.6-2.8c0-1.6-1.1-2.8-2.6-2.8
		C110.5,11.2,109.5,12.5,109.5,14z"/>
	<path class="st1" d="M128.1,14c0,2.6-2,4.5-4.6,4.5c-2.7,0-4.6-2-4.6-4.5s2-4.5,4.6-4.5C126.1,9.4,128.1,11.4,128.1,14z M120.7,14
		c0,1.6,1.2,2.8,2.7,2.8c1.5,0,2.7-1.1,2.7-2.8c0-1.6-1.2-2.8-2.7-2.8C121.9,11.2,120.7,12.3,120.7,14z"/>
	<path class="st1" d="M137.5,10.8l-1.2,1.3c-0.6-0.6-1.2-0.9-2.1-0.9c-1.4,0-2.5,1.1-2.5,2.8c0,1.6,1.1,2.8,2.5,2.8
		c0.8,0,1.6-0.4,2.1-0.9l1.2,1.3c-0.8,0.9-1.9,1.4-3.2,1.4c-2.7,0-4.5-2-4.5-4.5s1.8-4.5,4.5-4.5C135.6,9.4,136.8,9.9,137.5,10.8z"
		/>
	<path class="st1" d="M142.8,11.1c-1,0-1.6,0.4-1.6,1s0.6,0.8,1.4,0.9l0.9,0.1c1.9,0.3,3,1.1,3,2.5c0,1.7-1.4,2.8-3.9,2.8
		c-0.9,0-2.4-0.2-3.7-1.1l0.9-1.4c0.6,0.5,1.5,0.9,2.8,0.9c1.3,0,2-0.4,2-1.1c0-0.5-0.5-0.8-1.5-1l-0.9-0.1
		c-1.9-0.3-2.9-1.1-2.9-2.5c0-1.7,1.4-2.8,3.6-2.8c1.4,0,2.6,0.3,3.5,0.9l-0.8,1.5C145,11.5,143.9,11.1,142.8,11.1z"/>
</g>
</svg>
