<svg xmlns="http://www.w3.org/2000/svg" viewBox="35 12 188 46.288"><defs><style>.a{fill:#fff;}.b{fill:#3cb054;}</style></defs><g transform="translate(35 12)"><rect class="a" width="29.653" height="29.653" transform="translate(8.317 7.874)"/><path class="b" d="M23.144,0A23.144,23.144,0,1,0,46.288,23.144,23.144,23.144,0,0,0,23.144,0ZM34.032,30.4a9.627,9.627,0,0,1-4.053,5.257c.086-.358.174-.717.241-1.084,1.247-6.961-1.116-15.337-12.671-19.964,9.194,5.3,12.9,14.732,8.617,20.82-7.3,1.111-12.631-4.926-12.631-11.882V10.864C30.73,11.48,37.361,21.478,34.032,30.4Z"/><g transform="translate(60.03 14.552)"><path class="a" d="M1756.67,6438.391a6.154,6.154,0,0,0-5.079,2.354v-1.931h-3.539v23h3.539v-8.7a6.156,6.156,0,0,0,5.079,2.353c4.538,0,8.111-3.573,8.111-8.534S1761.208,6438.391,1756.67,6438.391Zm-.423,3.336c3.048,0,4.894,2.354,4.894,5.2s-1.846,5.2-4.894,5.2a5.208,5.208,0,0,1,0-10.4Z" transform="translate(-1748.052 -6438.391)"/><path class="a" d="M1811.563,6438.391c-4.775,0-8.077,3.455-8.077,8.534,0,5.148,3.42,8.534,8.3,8.534a9.77,9.77,0,0,0,6.671-2.286l-1.761-2.522a7.689,7.689,0,0,1-4.691,1.709,4.582,4.582,0,0,1-4.826-4.132h11.989a11,11,0,0,0,.068-1.321C1819.233,6441.846,1816.084,6438.391,1811.563,6438.391Zm-.068,3.149c2.252,0,3.725,1.474,4.115,4h-8.416C1807.55,6443.166,1808.972,6441.54,1811.495,6441.54Z" transform="translate(-1784.163 -6438.391)"/><path class="a" d="M1864.28,6438.391c-4.775,0-8.077,3.455-8.077,8.534,0,5.148,3.421,8.534,8.3,8.534a9.771,9.771,0,0,0,6.672-2.286l-1.761-2.522a7.688,7.688,0,0,1-4.691,1.709,4.582,4.582,0,0,1-4.826-4.132h11.989a10.947,10.947,0,0,0,.068-1.321C1871.951,6441.846,1868.8,6438.391,1864.28,6438.391Zm-.068,3.149c2.252,0,3.725,1.474,4.115,4h-8.416C1860.267,6443.166,1861.69,6441.54,1864.213,6441.54Z" transform="translate(-1818.54 -6438.391)"/><path class="a" d="M1920.638,6438.391a5.4,5.4,0,0,0-4.707,2.252v-1.83h-3.505v16.222h3.539v-8.923c0-2.777,1.609-4.352,3.861-4.352a6.33,6.33,0,0,1,2.693.593l.847-3.505A7.079,7.079,0,0,0,1920.638,6438.391Z" transform="translate(-1855.878 -6438.391)"/><path class="a" d="M1956.626,6438.391a8.534,8.534,0,1,0,0,17.068,7.807,7.807,0,0,0,6.062-2.59l-2.184-2.438a5.9,5.9,0,0,1-3.979,1.693c-2.726,0-4.792-2.133-4.792-5.2s2.066-5.2,4.792-5.2a5.4,5.4,0,0,1,3.895,1.677l2.269-2.421A7.735,7.735,0,0,0,1956.626,6438.391Z" transform="translate(-1880.093 -6438.391)"/><path class="a" d="M2004.376,6438.391a8.537,8.537,0,1,0,8.737,8.534A8.419,8.419,0,0,0,2004.376,6438.391Zm0,3.336a5.2,5.2,0,1,1-5.08,5.2A4.982,4.982,0,0,1,2004.376,6441.727Z" transform="translate(-1911.541 -6438.391)"/><rect class="a" width="3.556" height="16.222" transform="translate(104.709 0.423)"/><path class="a" d="M2090.71,6438.391a5.8,5.8,0,0,0-4.978,2.4v-1.982h-3.522v16.222h3.556v-8.99a4.02,4.02,0,0,1,4.2-4.285c2.387,0,3.776,1.524,3.776,4.251v9.024h3.556v-10.194A6.251,6.251,0,0,0,2090.71,6438.391Z" transform="translate(-1969.327 -6438.391)"/></g><g transform="translate(163.603 7.874)"><path class="b" d="M-1861.825,812.15c4.139.148,5.736,2.555,4.934,4.7a2.319,2.319,0,0,1-.975,1.266c.021-.086.042-.173.058-.261.3-1.676-.269-3.692-3.051-4.806,2.214,1.276,3.107,3.546,2.075,5.012a2.71,2.71,0,0,1-3.041-2.86Z" transform="translate(1861.825 -812.15)"/></g><g transform="translate(147.113 33.751)"><path class="b" d="M418.1,99.491c0,3.712-2.551,6.158-6.4,6.158h-4.892V93.333h4.892C415.55,93.333,418.1,95.778,418.1,99.491Zm-9.3,4.275h2.9a4.276,4.276,0,1,0,0-8.551h-2.9Z" transform="translate(-406.815 -93.333)"/><path class="b" d="M452.181,107.911a4.536,4.536,0,1,1-4.539-4.434A4.381,4.381,0,0,1,452.181,107.911Zm-7.178,0a2.644,2.644,0,1,0,2.639-2.7A2.582,2.582,0,0,0,445,107.911Z" transform="translate(-429.985 -99.809)"/><path class="b" d="M480.4,104.823l-1.179,1.258a2.8,2.8,0,0,0-2.023-.871,2.71,2.71,0,0,0,0,5.4,3.067,3.067,0,0,0,2.067-.88L480.4,111a4.057,4.057,0,0,1-3.149,1.346,4.434,4.434,0,1,1,0-8.868A4.018,4.018,0,0,1,480.4,104.823Z" transform="translate(-448.947 -99.809)"/><path class="b" d="M501.335,105.1c-1.012,0-1.592.4-1.592,1s.616.757,1.39.871l.871.132c1.839.273,2.929,1.047,2.929,2.489,0,1.619-1.408,2.754-3.836,2.754a6.2,6.2,0,0,1-3.616-1.082l.853-1.381a4.234,4.234,0,0,0,2.78.862c1.267,0,1.918-.4,1.918-1.029,0-.484-.449-.792-1.461-.933l-.879-.114c-1.874-.255-2.859-1.108-2.859-2.472,0-1.663,1.337-2.7,3.484-2.7a6.4,6.4,0,0,1,3.413.889l-.792,1.434A5.5,5.5,0,0,0,501.335,105.1Z" transform="translate(-464.695 -99.824)"/></g></g></svg>