<svg xmlns="http://www.w3.org/2000/svg" viewBox="573.037 134.03 458.246 160.78"><defs><style>.a{fill:#fff;}.b,.e,.g{fill:#3cb054;}.c{fill:#222;}.d,.f{fill:#c1c1c1;}.d,.e{opacity:0.129;}.f,.g{opacity:0.2;}</style></defs><g transform="translate(650 196.167)"><rect class="a" width="40.682" height="40.682" transform="translate(11.411 10.803)"/><path class="b" d="M31.752,0A31.752,31.752,0,1,0,63.5,31.752,31.752,31.752,0,0,0,31.752,0ZM46.69,41.708a13.208,13.208,0,0,1-5.56,7.213c.118-.491.239-.984.331-1.487,1.711-9.55-1.531-21.041-17.384-27.389C36.69,27.318,41.78,40.256,35.9,48.608c-10.011,1.524-17.329-6.758-17.329-16.3v-17.4C42.16,15.75,51.257,29.467,46.69,41.708Z"/><g transform="translate(82.356 19.964)"><path class="c" d="M1759.876,6438.39a8.445,8.445,0,0,0-6.969,3.229v-2.648h-4.855v31.547h4.855v-11.939a8.444,8.444,0,0,0,6.969,3.229c6.226,0,11.127-4.9,11.127-11.708S1766.1,6438.39,1759.876,6438.39Zm-.581,4.576c4.181,0,6.714,3.23,6.714,7.133s-2.532,7.131-6.714,7.131c-4,0-6.714-3.065-6.714-7.131S1755.3,6442.966,1759.3,6442.966Z" transform="translate(-1748.052 -6438.39)"/><path class="c" d="M1814.566,6438.39c-6.551,0-11.081,4.74-11.081,11.709,0,7.063,4.693,11.708,11.383,11.708a13.4,13.4,0,0,0,9.153-3.136l-2.416-3.461a10.552,10.552,0,0,1-6.435,2.346,6.286,6.286,0,0,1-6.62-5.669H1825a15.007,15.007,0,0,0,.093-1.812C1825.09,6443.13,1820.769,6438.39,1814.566,6438.39Zm-.093,4.321c3.09,0,5.111,2.021,5.645,5.481h-11.546C1809.061,6444.94,1811.012,6442.711,1814.473,6442.711Z" transform="translate(-1776.976 -6438.39)"/><path class="c" d="M1867.284,6438.39c-6.551,0-11.081,4.74-11.081,11.709,0,7.063,4.693,11.708,11.383,11.708a13.4,13.4,0,0,0,9.153-3.136l-2.416-3.461a10.552,10.552,0,0,1-6.435,2.346,6.287,6.287,0,0,1-6.621-5.669h16.447a15.007,15.007,0,0,0,.093-1.812C1877.808,6443.13,1873.487,6438.39,1867.284,6438.39Zm-.093,4.321c3.09,0,5.111,2.021,5.645,5.481h-11.546C1861.779,6444.94,1863.73,6442.711,1867.192,6442.711Z" transform="translate(-1804.532 -6438.39)"/><path class="c" d="M1923.692,6438.39a7.406,7.406,0,0,0-6.458,3.09v-2.509h-4.809v22.255h4.855v-12.242c0-3.81,2.207-5.971,5.3-5.971a8.684,8.684,0,0,1,3.694.813l1.162-4.809A9.694,9.694,0,0,0,1923.692,6438.39Z" transform="translate(-1834.846 -6438.39)"/><path class="c" d="M1959.8,6438.39c-7.062,0-11.708,5.041-11.708,11.709s4.646,11.708,11.708,11.708a10.713,10.713,0,0,0,8.317-3.555l-3-3.345a8.1,8.1,0,0,1-5.459,2.322c-3.74,0-6.574-2.926-6.574-7.131s2.834-7.133,6.574-7.133a7.407,7.407,0,0,1,5.343,2.3l3.113-3.322A10.615,10.615,0,0,0,1959.8,6438.39Z" transform="translate(-1854.802 -6438.39)"/><path class="c" d="M2007.619,6438.39a11.711,11.711,0,1,0,0,23.417c6.876,0,11.987-5.041,11.987-11.708S2014.5,6438.39,2007.619,6438.39Zm0,4.576a7.134,7.134,0,1,1-6.969,7.133A6.836,6.836,0,0,1,2007.619,6442.966Z" transform="translate(-1880.257 -6438.39)"/><rect class="c" width="4.879" height="22.255" transform="translate(143.653 0.581)"/><path class="c" d="M2093.871,6438.39a7.953,7.953,0,0,0-6.83,3.3v-2.719h-4.832v22.255h4.879v-12.335a5.514,5.514,0,0,1,5.761-5.878c3.275,0,5.181,2.092,5.181,5.831v12.382h4.878V6447.24C2102.908,6442.037,2099.168,6438.39,2093.871,6438.39Z" transform="translate(-1927.343 -6438.39)"/></g><g transform="translate(224.451 10.803)"><path class="b" d="M-1861.825,812.15c5.679.2,7.869,3.505,6.77,6.452a3.181,3.181,0,0,1-1.339,1.736c.028-.118.057-.237.08-.358.412-2.3-.369-5.065-4.185-6.593,3.037,1.75,4.262,4.865,2.846,6.876a3.717,3.717,0,0,1-4.172-3.924Z" transform="translate(1861.825 -812.15)"/></g><g transform="translate(201.828 46.304)"><path class="b" d="M422.3,101.781c0,5.093-3.5,8.448-8.774,8.448h-6.711v-16.9h6.711C418.8,93.333,422.3,96.688,422.3,101.781Zm-12.757,5.866h3.983c3.958,0,5.914-2.462,5.914-5.866,0-3.428-1.956-5.866-5.914-5.866h-3.983Z" transform="translate(-406.815 -93.333)"/><path class="b" d="M455.554,109.56a6.223,6.223,0,1,1-6.228-6.083A6.011,6.011,0,0,1,455.554,109.56Zm-9.848,0a3.628,3.628,0,1,0,3.621-3.705A3.542,3.542,0,0,0,445.706,109.56Z" transform="translate(-425.104 -98.444)"/><path class="b" d="M483.218,105.324,481.6,107.05a3.848,3.848,0,0,0-2.776-1.2,3.718,3.718,0,0,0,0,7.411,4.207,4.207,0,0,0,2.836-1.207l1.557,1.738a5.566,5.566,0,0,1-4.321,1.847,6.083,6.083,0,1,1,0-12.166A5.513,5.513,0,0,1,483.218,105.324Z" transform="translate(-440.071 -98.444)"/><path class="b" d="M502.768,105.7c-1.388,0-2.185.555-2.185,1.376s.845,1.038,1.907,1.2l1.2.181c2.522.374,4.019,1.436,4.019,3.415,0,2.221-1.931,3.778-5.262,3.778a8.508,8.508,0,0,1-4.961-1.484l1.171-1.9a5.809,5.809,0,0,0,3.814,1.183c1.738,0,2.631-.543,2.631-1.412,0-.664-.616-1.086-2-1.279l-1.207-.157c-2.571-.35-3.923-1.521-3.923-3.391,0-2.281,1.835-3.705,4.779-3.705a8.784,8.784,0,0,1,4.683,1.219l-1.086,1.967A7.551,7.551,0,0,0,502.768,105.7Z" transform="translate(-452.5 -98.457)"/></g></g><path class="d" d="M18.537,0A18.537,18.537,0,1,0,37.073,18.537,18.537,18.537,0,0,0,18.537,0Zm8.721,24.349a7.711,7.711,0,0,1-3.246,4.211c.069-.287.14-.575.193-.868,1-5.575-.894-12.284-10.149-15.989,7.364,4.246,10.335,11.8,6.9,16.675-5.845.89-10.116-3.945-10.116-9.516V8.7C24.613,9.2,29.924,17.2,27.258,24.349Z" transform="translate(599.273 179.344) rotate(-21)"/><path class="e" d="M12.029,0A12.029,12.029,0,1,0,24.058,12.029,12.029,12.029,0,0,0,12.029,0Zm5.659,15.8a5,5,0,0,1-2.106,2.733c.045-.186.091-.373.125-.563.648-3.618-.58-7.971-6.586-10.376,4.779,2.755,6.707,7.657,4.479,10.821-3.793.578-6.565-2.56-6.565-6.176V5.647C15.972,5.967,19.419,11.163,17.689,15.8Z" transform="translate(619.406 250.418) rotate(-121)"/><path class="e" d="M15.4,0a15.4,15.4,0,1,0,15.4,15.4A15.4,15.4,0,0,0,15.4,0Zm7.248,20.235a6.408,6.408,0,0,1-2.7,3.5c.057-.238.116-.478.16-.721.83-4.633-.743-10.208-8.434-13.288,6.12,3.528,8.589,9.806,5.735,13.858-4.857.74-8.407-3.279-8.407-7.909V7.231C20.454,7.642,24.868,14.3,22.652,20.235Z" transform="translate(654.199 142.379) rotate(14)"/><path class="d" d="M15.4,0a15.4,15.4,0,1,0,15.4,15.4A15.4,15.4,0,0,0,15.4,0Zm7.248,20.235a6.408,6.408,0,0,1-2.7,3.5c.057-.238.116-.478.16-.721.83-4.633-.743-10.208-8.434-13.288,6.12,3.528,8.589,9.806,5.735,13.858-4.857.74-8.407-3.279-8.407-7.909V7.231C20.454,7.642,24.868,14.3,22.652,20.235Z" transform="translate(922.199 177.379) rotate(14)"/><path class="d" d="M12.213,0A12.213,12.213,0,1,0,24.427,12.213,12.213,12.213,0,0,0,12.213,0Zm5.746,16.043a5.08,5.08,0,0,1-2.139,2.774c.045-.189.092-.379.127-.572.658-3.673-.589-8.093-6.687-10.535,4.852,2.8,6.81,7.774,4.547,10.987-3.851.586-6.665-2.6-6.665-6.27V5.733C16.217,6.058,19.716,11.334,17.959,16.043Z" transform="matrix(-0.719, 0.695, -0.695, -0.719, 946.768, 277.842)"/><path class="e" d="M16.627,0A16.627,16.627,0,1,0,33.254,16.627,16.627,16.627,0,0,0,16.627,0ZM24.45,21.841a6.916,6.916,0,0,1-2.912,3.777c.062-.257.125-.515.173-.779.9-5-.8-11.018-9.1-14.342,6.605,3.808,9.271,10.584,6.19,14.958-5.243.8-9.074-3.539-9.074-8.536V7.805C22.078,8.248,26.841,15.431,24.45,21.841Z" transform="matrix(-0.292, 0.956, -0.956, -0.292, 970.772, 228.57)"/><path class="e" d="M15.4,0a15.4,15.4,0,1,0,15.4,15.4A15.4,15.4,0,0,0,15.4,0Zm7.248,20.235a6.408,6.408,0,0,1-2.7,3.5c.057-.238.116-.478.16-.721.83-4.633-.743-10.208-8.434-13.288,6.12,3.528,8.589,9.806,5.735,13.858-4.857.74-8.407-3.279-8.407-7.909V7.231C20.454,7.642,24.868,14.3,22.652,20.235Z" transform="translate(959.666 258.21) rotate(-20)"/><path class="d" d="M12.213,0A12.213,12.213,0,1,0,24.427,12.213,12.213,12.213,0,0,0,12.213,0Zm5.746,16.043a5.08,5.08,0,0,1-2.139,2.774c.045-.189.092-.379.127-.572.658-3.673-.589-8.093-6.687-10.535,4.852,2.8,6.81,7.774,4.547,10.987-3.851.586-6.665-2.6-6.665-6.27V5.733C16.217,6.058,19.716,11.334,17.959,16.043Z" transform="matrix(-0.208, 0.978, -0.978, -0.208, 988.212, 195.759)"/><path class="e" d="M16.627,0A16.627,16.627,0,1,0,33.254,16.627,16.627,16.627,0,0,0,16.627,0ZM24.45,21.841a6.916,6.916,0,0,1-2.912,3.777c.062-.257.125-.515.173-.779.9-5-.8-11.018-9.1-14.342,6.605,3.808,9.271,10.584,6.19,14.958-5.243.8-9.074-3.539-9.074-8.536V7.805C22.078,8.248,26.841,15.431,24.45,21.841Z" transform="translate(1021.56 169.488) rotate(73)"/><path class="d" d="M10.119,0A10.119,10.119,0,1,0,20.238,10.119,10.119,10.119,0,0,0,10.119,0ZM14.88,13.292a4.209,4.209,0,0,1-1.772,2.3c.038-.156.076-.314.105-.474.545-3.044-.488-6.706-5.54-8.729,4.02,2.318,5.642,6.441,3.767,9.1-3.191.486-5.523-2.154-5.523-5.2V4.75C13.436,5.02,16.335,9.391,14.88,13.292Z" transform="matrix(0.602, 0.799, -0.799, 0.602, 627.597, 134.03)"/><path class="d" d="M13.205,0A13.205,13.205,0,1,0,26.41,13.205,13.205,13.205,0,0,0,13.205,0Zm6.213,17.346a5.493,5.493,0,0,1-2.312,3c.049-.2.1-.409.137-.618.711-3.972-.637-8.751-7.23-11.391,5.246,3.025,7.363,8.405,4.916,11.879-4.164.634-7.207-2.811-7.207-6.779V6.2C17.534,6.55,21.317,12.255,19.418,17.346Z" transform="translate(573.037 229.668) rotate(-88)"/><path class="f" d="M-1861.825,812.15c13.891.5,19.248,8.574,16.559,15.782a7.781,7.781,0,0,1-3.274,4.247c.069-.288.14-.58.195-.876,1.007-5.623-.9-12.39-10.237-16.127,7.428,4.281,10.425,11.9,6.961,16.819-5.9.9-10.2-3.98-10.2-9.6Z" transform="matrix(0.788, -0.616, 0.616, 0.788, 1946.24, -1554.84)"/><path class="g" d="M-1861.825,812.15c13.891.5,19.248,8.574,16.559,15.782a7.781,7.781,0,0,1-3.274,4.247c.069-.288.14-.58.195-.876,1.007-5.623-.9-12.39-10.237-16.127,7.428,4.281,10.425,11.9,6.961,16.819-5.9.9-10.2-3.98-10.2-9.6Z" transform="translate(2625.273 1332.049) rotate(59)"/><path class="f" d="M-1861.825,812.15c13.891.5,19.248,8.574,16.559,15.782a7.781,7.781,0,0,1-3.274,4.247c.069-.288.14-.58.195-.876,1.007-5.623-.9-12.39-10.237-16.127,7.428,4.281,10.425,11.9,6.961,16.819-5.9.9-10.2-3.98-10.2-9.6Z" transform="translate(2356.273 1344.049) rotate(59)"/><path class="f" d="M-1861.825,812.15c13.891.5,19.248,8.574,16.559,15.782a7.781,7.781,0,0,1-3.274,4.247c.069-.288.14-.58.195-.876,1.007-5.623-.9-12.39-10.237-16.127,7.428,4.281,10.425,11.9,6.961,16.819-5.9.9-10.2-3.98-10.2-9.6Z" transform="matrix(-0.438, -0.899, 0.899, -0.438, -918.284, -1037.255)"/><path class="g" d="M-1861.825,812.15c13.891.5,19.248,8.574,16.559,15.782a7.781,7.781,0,0,1-3.274,4.247c.069-.288.14-.58.195-.876,1.007-5.623-.9-12.39-10.237-16.127,7.428,4.281,10.425,11.9,6.961,16.819-5.9.9-10.2-3.98-10.2-9.6Z" transform="matrix(0.839, -0.545, 0.545, 0.839, 1692.515, -1520.871)"/></svg>